<svg width="250" height="500" viewBox="0 0 125 255" fill="none" xmlns="http://www.w3.org/2000/svg">
            <path d="M0 40.0707C0 39.7677 0.245636 39.5221 0.548643 39.5221H3.12783C3.43084 39.5221 3.67647 39.7677 3.67647 40.0707V49.0837C3.67647 49.3867 3.43084 49.6324 3.12783 49.6324H0.548643C0.245636 49.6324 0 49.3867 0 49.0837V40.0707Z" fill="#EBECF0" />
            <path d="M0 58.4531C0 58.1501 0.245636 57.9044 0.548643 57.9044H3.12783C3.43084 57.9044 3.67647 58.15 3.67647 58.4531V76.6573C3.67647 76.9603 3.43084 77.2059 3.12783 77.2059H0.548643C0.245636 77.2059 0 76.9603 0 76.6573V58.4531Z" fill="#EBECF0" />
            <path d="M0 83.2692C0 82.9662 0.245636 82.7206 0.548643 82.7206H3.12783C3.43084 82.7206 3.67647 82.9662 3.67647 83.2692V101.473C3.67647 101.776 3.43084 102.022 3.12783 102.022H0.548643C0.245636 102.022 0 101.776 0 101.473V83.2692Z" fill="#EBECF0" />
            <path d="M121.323 65.806C121.323 65.503 121.569 65.2574 121.872 65.2574H124.451C124.754 65.2574 125 65.503 125 65.806V94.1205C125 94.4235 124.754 94.6692 124.451 94.6692H121.872C121.569 94.6692 121.323 94.4235 121.323 94.1205V65.806Z" fill="#EBECF0" />
            <path d="M0.919006 10.4242C0.919006 4.66707 5.58608 0 11.3432 0H113.657C119.414 0 124.081 4.66708 124.081 10.4242V244.171C124.081 249.929 119.414 254.596 113.657 254.596H11.3432C5.58609 254.596 0.919006 249.929 0.919006 244.171V10.4242Z" fill="#F5F5F5" />
            <path d="M6.43384 12.5613C6.43384 8.66957 9.58869 5.51471 13.4804 5.51471H111.52C115.411 5.51471 118.566 8.66956 118.566 12.5613V242.034C118.566 245.926 115.411 249.081 111.52 249.081H13.4804C9.58869 249.081 6.43384 245.926 6.43384 242.034V12.5613Z" fill="white" />
            <path fill-rule="evenodd" clip-rule="evenodd" d="M1.83832 10.7947C1.83832 5.3406 6.25976 0.919161 11.7139 0.919161H113.286C118.74 0.919161 123.162 5.3406 123.162 10.7947V243.801C123.162 249.255 118.74 253.677 113.286 253.677H11.7139C6.25977 253.677 1.83832 249.255 1.83832 243.801V10.7947ZM6.43395 13.1957C6.43395 8.95362 9.87286 5.51471 14.115 5.51471H32.1693V10.8654C32.1693 12.9865 33.8888 14.7059 36.0098 14.7059H88.9906C91.1117 14.7059 92.8311 12.9865 92.8311 10.8654V5.51471H110.885C115.127 5.51471 118.566 8.95361 118.566 13.1957V241.4C118.566 245.642 115.127 249.081 110.885 249.081H14.115C9.87286 249.081 6.43395 245.642 6.43395 241.4V13.1957Z" fill="black" />
            <path d="M53.3084 8.27236C53.3084 7.76474 53.7199 7.35324 54.2275 7.35324H70.7717C71.2793 7.35324 71.6908 7.76474 71.6908 8.27236C71.6908 8.77997 71.2793 9.19148 70.7717 9.19148H54.2275C53.7199 9.19148 53.3084 8.77997 53.3084 8.27236Z" fill="#BEBFC3" />
            <path d="M79.9631 8.27206C79.9631 9.28729 79.1401 10.1103 78.1249 10.1103C77.1096 10.1103 76.2866 9.28729 76.2866 8.27206C76.2866 7.25683 77.1096 6.43382 78.1249 6.43382C79.1401 6.43382 79.9631 7.25683 79.9631 8.27206Z" fill="#BCBDBF" />
        </svg>